# xmcd CD database file
#
# Track frame offsets:
#	150
#	12772
#	23943
#	35587
#	46610
#	58498
#	70174
#	83368
#	96550
#	107940
#	117927
#	125907
#	134268
#	145610
#
# Disc length: 2107 seconds
#
# Revision: 0
# Processed by: cddbd v1.5.1PL0 Copyright (c) Steve Scherf et al.
# Submitted via: CDex 1.51
#
DISCID=c308390e
DTITLE=The Best of  - Country and Western 2
DYEAR=1997
DGENRE=Country
TTITLE0=Pattii Page - Gentle on my Mind
TTITLE1=Roy Orbison - Blue Bayou
TTITLE2=Sammi Smith - Help me make it through the night
TTITLE3=Billy Walker - When a man loves a women
TTITLE4=Tammy Wynette - Stand by your man
TTITLE5=Lynn Anderson - You don´t have to say you love me
TTITLE6=Glenn Campbell - Southern nights
TTITLE7=Gene Pitney - The man who shot liberty valence
TTITLE8=N. Sinatra and L. Hazlewood - Greenwich village folksong sajesman
TTITLE9=Kitty Wells - I can´t stop loving you
TTITLE10=Roger Miller - Do Wacka Do
TTITLE11=Bob Luman - Let´s think about living
TTITLE12=Johnny Horton - Battle of new orleans
TTITLE13=Kingston Trio - Greenback Dollar
EXTD=YEAR: 1997
EXTT0=
EXTT1=
EXTT2=
EXTT3=
EXTT4=
EXTT5=
EXTT6=
EXTT7=
EXTT8=
EXTT9=
EXTT10=
EXTT11=
EXTT12=
EXTT13=
PLAYORDER=
